<svg width="109" height="32" viewBox="0 0 109 32" fill="none" xmlns="http://www.w3.org/2000/svg">
<path d="M6.87049 26.3773V11.8318H15.6489V13.3943H8.63186V18.3091H15.1944V19.8716H8.63186V24.8148H15.7625V26.3773H6.87049ZM22.7157 26.6046C21.8066 26.6046 21.004 26.3749 20.308 25.9156C19.612 25.4516 19.0675 24.7982 18.6745 23.9554C18.2815 23.1079 18.085 22.1065 18.085 20.9512C18.085 19.8053 18.2815 18.811 18.6745 17.9682C19.0675 17.1254 19.6143 16.4744 20.3151 16.0151C21.0159 15.5558 21.8255 15.3262 22.7441 15.3262C23.4543 15.3262 24.0154 15.4445 24.4273 15.6813C24.844 15.9133 25.1612 16.1784 25.379 16.4767C25.6016 16.7703 25.7744 17.0118 25.8975 17.2012H26.0395V11.8318H27.7157V26.3773H26.0963V24.7012H25.8975C25.7744 24.9 25.5992 25.151 25.3719 25.454C25.1446 25.7523 24.8203 26.0198 24.3989 26.2566C23.9775 26.4886 23.4164 26.6046 22.7157 26.6046ZM22.9429 25.0989C23.6153 25.0989 24.1835 24.9237 24.6475 24.5733C25.1115 24.2182 25.4642 23.7281 25.7057 23.1031C25.9472 22.4734 26.0679 21.7466 26.0679 20.9228C26.0679 20.1084 25.9496 19.3958 25.7128 18.785C25.4761 18.1694 25.1257 17.6912 24.6617 17.3503C24.1977 17.0047 23.6248 16.8318 22.9429 16.8318C22.2327 16.8318 21.6409 17.0141 21.1674 17.3787C20.6986 17.7386 20.3459 18.2286 20.1091 18.8489C19.8771 19.4644 19.7611 20.1557 19.7611 20.9228C19.7611 21.6993 19.8795 22.4048 20.1162 23.0392C20.3577 23.669 20.7128 24.1709 21.1816 24.5449C21.6551 24.9142 22.2422 25.0989 22.9429 25.0989ZM37.8932 21.9171V15.4682H39.5694V26.3773H37.8932V24.5307H37.7796C37.5239 25.0847 37.1262 25.5558 36.5864 25.9441C36.0466 26.3276 35.3648 26.5193 34.5409 26.5193C33.8591 26.5193 33.2531 26.3702 32.7228 26.0719C32.1925 25.7689 31.7758 25.3143 31.4728 24.7083C31.1697 24.0975 31.0182 23.3281 31.0182 22.4V15.4682H32.6944V22.2864C32.6944 23.0818 32.9169 23.7163 33.362 24.1898C33.8118 24.6633 34.3847 24.9 35.0807 24.9C35.4974 24.9 35.9212 24.7935 36.352 24.5804C36.7876 24.3674 37.1522 24.0406 37.4458 23.6003C37.7441 23.16 37.8932 22.5989 37.8932 21.9171ZM50.8211 15.4682C50.7359 14.7485 50.3903 14.1898 49.7842 13.7921C49.1781 13.3943 48.4348 13.1955 47.5541 13.1955C46.9101 13.1955 46.3467 13.2996 45.8637 13.508C45.3855 13.7163 45.0115 14.0028 44.7416 14.3674C44.4764 14.7319 44.3439 15.1462 44.3439 15.6103C44.3439 15.9985 44.4362 16.3323 44.6208 16.6117C44.8102 16.8863 45.0517 17.1159 45.3453 17.3006C45.6388 17.4805 45.9466 17.6297 46.2686 17.748C46.5905 17.8617 46.8865 17.954 47.1564 18.025L48.6336 18.4228C49.0124 18.5222 49.4338 18.6595 49.8978 18.8347C50.3666 19.0099 50.814 19.249 51.2402 19.552C51.671 19.8503 52.0262 20.2338 52.3055 20.7026C52.5849 21.1713 52.7245 21.7466 52.7245 22.4284C52.7245 23.2144 52.5186 23.9246 52.1066 24.5591C51.6994 25.1936 51.1029 25.6978 50.3169 26.0719C49.5356 26.446 48.5863 26.633 47.4689 26.633C46.4272 26.633 45.5252 26.4649 44.7629 26.1287C44.0053 25.7925 43.4087 25.3238 42.9731 24.7225C42.5423 24.1211 42.2984 23.4228 42.2416 22.6273H44.0598C44.1071 23.1765 44.2918 23.6311 44.6137 23.9909C44.9405 24.346 45.3524 24.6112 45.8495 24.7864C46.3514 24.9568 46.8912 25.0421 47.4689 25.0421C48.1412 25.0421 48.7449 24.9332 49.2799 24.7154C49.815 24.4928 50.2387 24.1851 50.5512 23.7921C50.8637 23.3943 51.02 22.9303 51.02 22.4C51.02 21.9171 50.8851 21.5241 50.6152 21.221C50.3453 20.918 49.9902 20.6718 49.5498 20.4824C49.1095 20.293 48.6336 20.1273 48.1223 19.9853L46.3325 19.4739C45.1961 19.1472 44.2965 18.6808 43.6336 18.0747C42.9708 17.4687 42.6393 16.6756 42.6393 15.6955C42.6393 14.8811 42.8595 14.1709 43.2998 13.5648C43.7449 12.954 44.3415 12.4805 45.0896 12.1443C45.8424 11.8034 46.6829 11.633 47.6109 11.633C48.5484 11.633 49.3817 11.8011 50.1109 12.1372C50.8401 12.4687 51.4177 12.9232 51.8439 13.5009C52.2747 14.0785 52.502 14.7343 52.5257 15.4682H50.8211ZM59.825 26.6046C58.8402 26.6046 57.9761 26.3702 57.2327 25.9014C56.4941 25.4327 55.9164 24.7769 55.4998 23.9341C55.0878 23.0913 54.8819 22.1065 54.8819 20.9796C54.8819 19.8432 55.0878 18.8513 55.4998 18.0037C55.9164 17.1562 56.4941 16.498 57.2327 16.0293C57.9761 15.5605 58.8402 15.3262 59.825 15.3262C60.8099 15.3262 61.6716 15.5605 62.4103 16.0293C63.1536 16.498 63.7313 17.1562 64.1432 18.0037C64.5599 18.8513 64.7682 19.8432 64.7682 20.9796C64.7682 22.1065 64.5599 23.0913 64.1432 23.9341C63.7313 24.7769 63.1536 25.4327 62.4103 25.9014C61.6716 26.3702 60.8099 26.6046 59.825 26.6046ZM59.825 25.0989C60.5731 25.0989 61.1887 24.9071 61.6716 24.5236C62.1546 24.1401 62.5121 23.6358 62.7441 23.0108C62.9761 22.3858 63.0921 21.7087 63.0921 20.9796C63.0921 20.2504 62.9761 19.571 62.7441 18.9412C62.5121 18.3115 62.1546 17.8025 61.6716 17.4142C61.1887 17.026 60.5731 16.8318 59.825 16.8318C59.0769 16.8318 58.4614 17.026 57.9784 17.4142C57.4955 17.8025 57.138 18.3115 56.906 18.9412C56.674 19.571 56.558 20.2504 56.558 20.9796C56.558 21.7087 56.674 22.3858 56.906 23.0108C57.138 23.6358 57.4955 24.1401 57.9784 24.5236C58.4614 24.9071 59.0769 25.0989 59.825 25.0989ZM74.2018 21.9171V15.4682H75.878V26.3773H74.2018V24.5307H74.0882C73.8325 25.0847 73.4348 25.5558 72.895 25.9441C72.3552 26.3276 71.6734 26.5193 70.8495 26.5193C70.1677 26.5193 69.5617 26.3702 69.0314 26.0719C68.5011 25.7689 68.0844 25.3143 67.7814 24.7083C67.4783 24.0975 67.3268 23.3281 67.3268 22.4V15.4682H69.003V22.2864C69.003 23.0818 69.2255 23.7163 69.6706 24.1898C70.1204 24.6633 70.6933 24.9 71.3893 24.9C71.806 24.9 72.2298 24.7935 72.6606 24.5804C73.0962 24.3674 73.4608 24.0406 73.7544 23.6003C74.0527 23.16 74.2018 22.5989 74.2018 21.9171ZM78.9479 26.3773V15.4682H80.5672V17.1159H80.6809C80.8797 16.5762 81.2396 16.1382 81.7604 15.802C82.2812 15.4658 82.8684 15.2978 83.5218 15.2978C83.6449 15.2978 83.7988 15.3001 83.9834 15.3049C84.1681 15.3096 84.3078 15.3167 84.4025 15.3262V17.0307C84.3456 17.0165 84.2154 16.9952 84.0118 16.9668C83.813 16.9336 83.6023 16.9171 83.3797 16.9171C82.8494 16.9171 82.3759 17.0283 81.9593 17.2509C81.5473 17.4687 81.2206 17.7717 80.9792 18.16C80.7424 18.5435 80.624 18.9815 80.624 19.4739V26.3773H78.9479ZM90.4891 26.6046C89.4664 26.6046 88.5857 26.3631 87.8471 25.8801C87.1084 25.3972 86.5402 24.7319 86.1425 23.8844C85.7448 23.0369 85.5459 22.0686 85.5459 20.9796C85.5459 19.8716 85.7495 18.8939 86.1567 18.0463C86.5686 17.1941 87.1416 16.5288 87.8755 16.0506C88.6141 15.5676 89.4758 15.3262 90.4607 15.3262C91.2277 15.3262 91.919 15.4682 92.5346 15.7523C93.1501 16.0364 93.6543 16.4341 94.0473 16.9455C94.4403 17.4568 94.6842 18.0534 94.7789 18.7353H93.1027C92.9749 18.2381 92.6908 17.7978 92.2505 17.4142C91.8149 17.026 91.2277 16.8318 90.4891 16.8318C89.8357 16.8318 89.2628 17.0023 88.7704 17.3432C88.2827 17.6794 87.9015 18.1552 87.6269 18.7708C87.357 19.3816 87.2221 20.0989 87.2221 20.9228C87.2221 21.7656 87.3546 22.4995 87.6198 23.1245C87.8897 23.7495 88.2685 24.2348 88.7561 24.5804C89.2486 24.9261 89.8262 25.0989 90.4891 25.0989C90.9247 25.0989 91.3201 25.0231 91.6752 24.8716C92.0303 24.7201 92.331 24.5023 92.5772 24.2182C92.8234 23.9341 92.9986 23.5932 93.1027 23.1955H94.7789C94.6842 23.8394 94.4498 24.4194 94.0758 24.9355C93.7064 25.4469 93.2164 25.8541 92.6056 26.1571C91.9995 26.4554 91.294 26.6046 90.4891 26.6046ZM101.803 26.6046C100.752 26.6046 99.8452 26.3726 99.0829 25.9085C98.3253 25.4398 97.7405 24.7864 97.3286 23.9483C96.9214 23.1055 96.7178 22.1254 96.7178 21.008C96.7178 19.8906 96.9214 18.9057 97.3286 18.0534C97.7405 17.1964 98.3134 16.5288 99.0473 16.0506C99.786 15.5676 100.648 15.3262 101.633 15.3262C102.201 15.3262 102.762 15.4209 103.316 15.6103C103.87 15.7996 104.374 16.1074 104.829 16.5335C105.283 16.9549 105.645 17.5137 105.915 18.2097C106.185 18.9057 106.32 19.7627 106.32 20.7807V21.4909H97.911V20.0421H104.616C104.616 19.4265 104.492 18.8773 104.246 18.3943C104.005 17.9114 103.659 17.5302 103.209 17.2509C102.764 16.9715 102.239 16.8318 101.633 16.8318C100.965 16.8318 100.387 16.9976 99.8996 17.329C99.4167 17.6557 99.045 18.0818 98.7846 18.6074C98.5241 19.133 98.3939 19.6964 98.3939 20.2978V21.2637C98.3939 22.0875 98.536 22.7859 98.8201 23.3588C99.1089 23.927 99.509 24.3603 100.02 24.6585C100.532 24.9521 101.126 25.0989 101.803 25.0989C102.243 25.0989 102.641 25.0373 102.996 24.9142C103.356 24.7864 103.666 24.597 103.927 24.346C104.187 24.0904 104.388 23.7731 104.53 23.3943L106.15 23.8489C105.979 24.3981 105.693 24.8811 105.29 25.2978C104.888 25.7097 104.391 26.0317 103.799 26.2637C103.207 26.4909 102.542 26.6046 101.803 26.6046Z" fill="black"/>
<g clip-path="url(#clip0_3_71)">
<path fill-rule="evenodd" clip-rule="evenodd" d="M8.01165 2.10765C7.86239 2.07201 7.70503 2.09976 7.57695 2.1843L1.01273 6.51686C0.828051 6.63875 0.733397 6.85866 0.771822 7.07658C0.810245 7.29449 0.974407 7.46877 1.18963 7.52015L2.24018 7.77093L3.31813 13.8843C2.88037 14.1787 2.63298 14.7128 2.7305 15.2658C2.86247 16.0143 3.57619 16.514 4.32465 16.382C5.0731 16.2501 5.57285 15.5363 5.44088 14.7879C5.34327 14.2343 4.92744 13.8167 4.4147 13.6902L3.42065 8.05272L8.83981 9.34633C8.98907 9.38196 9.14644 9.35421 9.27451 9.26968L15.8388 4.93712C16.0234 4.81523 16.1181 4.59531 16.0796 4.3774C16.0412 4.15948 15.877 3.98521 15.6619 3.93382L8.01165 2.10765ZM5.0351 12.3565L4.5706 9.75429L8.51706 10.6963C9.0395 10.821 9.59025 10.7239 10.0385 10.4281L13.4254 8.19266L13.8848 10.7948C13.9058 10.9143 13.8872 11.0374 13.8317 11.1452L13.3381 10.8913C13.8317 11.1452 13.8319 11.145 13.8317 11.1452L13.8311 11.1464L13.8304 11.1477L13.8288 11.1508L13.8245 11.1589L13.8114 11.1826C13.8008 11.2016 13.7862 11.2269 13.7673 11.2577C13.7296 11.3194 13.6748 11.4033 13.6012 11.5032C13.454 11.7029 13.2305 11.9678 12.9155 12.2468C12.2825 12.8076 11.2886 13.4176 9.82693 13.6753C8.36524 13.933 7.224 13.6995 6.43856 13.3885C6.0478 13.2338 5.74787 13.0611 5.54174 12.9236C5.43862 12.8547 5.35868 12.7945 5.30231 12.7494C5.2741 12.7268 5.25175 12.708 5.23528 12.6938L5.21499 12.6759L5.20816 12.6697L5.20557 12.6674L5.20449 12.6664C5.20426 12.6661 5.20353 12.6655 5.58156 12.259L5.20353 12.6655C5.11537 12.5835 5.05625 12.475 5.0351 12.3565Z" fill="white"/>
</g>
<defs>
<clipPath id="clip0_3_71">
<rect width="15.544" height="15.544" fill="white" transform="translate(0 2.69918) rotate(-10)"/>
</clipPath>
</defs>
</svg>
