<svg width="109" height="33" viewBox="0 0 109 33" fill="none" xmlns="http://www.w3.org/2000/svg">
<path d="M6.87049 27.1092V12.5637H15.6489V14.1262H8.63186V19.041H15.1944V20.6035H8.63186V25.5467H15.7625V27.1092H6.87049ZM22.7157 27.3365C21.8066 27.3365 21.004 27.1068 20.308 26.6475C19.612 26.1835 19.0675 25.5301 18.6745 24.6873C18.2815 23.8398 18.085 22.8384 18.085 21.683C18.085 20.5372 18.2815 19.5429 18.6745 18.7001C19.0675 17.8573 19.6143 17.2062 20.3151 16.747C21.0159 16.2877 21.8255 16.058 22.7441 16.058C23.4543 16.058 24.0154 16.1764 24.4273 16.4132C24.844 16.6452 25.1612 16.9103 25.379 17.2086C25.6016 17.5022 25.7744 17.7437 25.8975 17.933H26.0395V12.5637H27.7157V27.1092H26.0963V25.433H25.8975C25.7744 25.6319 25.5992 25.8829 25.3719 26.1859C25.1446 26.4842 24.8203 26.7517 24.3989 26.9884C23.9775 27.2205 23.4164 27.3365 22.7157 27.3365ZM22.9429 25.8308C23.6153 25.8308 24.1835 25.6556 24.6475 25.3052C25.1115 24.9501 25.4642 24.46 25.7057 23.835C25.9472 23.2053 26.0679 22.4785 26.0679 21.6546C26.0679 20.8402 25.9496 20.1276 25.7128 19.5169C25.4761 18.9013 25.1257 18.4231 24.6617 18.0822C24.1977 17.7366 23.6248 17.5637 22.9429 17.5637C22.2327 17.5637 21.6409 17.746 21.1674 18.1106C20.6986 18.4705 20.3459 18.9605 20.1091 19.5808C19.8771 20.1963 19.7611 20.8876 19.7611 21.6546C19.7611 22.4312 19.8795 23.1366 20.1162 23.7711C20.3577 24.4009 20.7128 24.9027 21.1816 25.2768C21.6551 25.6461 22.2422 25.8308 22.9429 25.8308ZM37.8932 22.649V16.2001H39.5694V27.1092H37.8932V25.2626H37.7796C37.5239 25.8166 37.1262 26.2877 36.5864 26.6759C36.0466 27.0595 35.3648 27.2512 34.5409 27.2512C33.8591 27.2512 33.2531 27.1021 32.7228 26.8038C32.1925 26.5008 31.7758 26.0462 31.4728 25.4402C31.1697 24.8294 31.0182 24.0599 31.0182 23.1319V16.2001H32.6944V23.0183C32.6944 23.8137 32.9169 24.4482 33.362 24.9217C33.8118 25.3952 34.3847 25.6319 35.0807 25.6319C35.4974 25.6319 35.9212 25.5254 36.352 25.3123C36.7876 25.0992 37.1522 24.7725 37.4458 24.3322C37.7441 23.8919 37.8932 23.3308 37.8932 22.649ZM50.8211 16.2001C50.7359 15.4804 50.3903 14.9217 49.7842 14.524C49.1781 14.1262 48.4348 13.9274 47.5541 13.9274C46.9101 13.9274 46.3467 14.0315 45.8637 14.2399C45.3855 14.4482 45.0115 14.7347 44.7416 15.0992C44.4764 15.4638 44.3439 15.8781 44.3439 16.3421C44.3439 16.7304 44.4362 17.0642 44.6208 17.3436C44.8102 17.6182 45.0517 17.8478 45.3453 18.0325C45.6388 18.2124 45.9466 18.3616 46.2686 18.4799C46.5905 18.5936 46.8865 18.6859 47.1564 18.7569L48.6336 19.1546C49.0124 19.2541 49.4338 19.3914 49.8978 19.5666C50.3666 19.7418 50.814 19.9809 51.2402 20.2839C51.671 20.5822 52.0262 20.9657 52.3055 21.4345C52.5849 21.9032 52.7245 22.4785 52.7245 23.1603C52.7245 23.9463 52.5186 24.6565 52.1066 25.291C51.6994 25.9255 51.1029 26.4297 50.3169 26.8038C49.5356 27.1778 48.5863 27.3649 47.4689 27.3649C46.4272 27.3649 45.5252 27.1968 44.7629 26.8606C44.0053 26.5244 43.4087 26.0557 42.9731 25.4544C42.5423 24.853 42.2984 24.1546 42.2416 23.3592H44.0598C44.1071 23.9084 44.2918 24.363 44.6137 24.7228C44.9405 25.0779 45.3524 25.3431 45.8495 25.5183C46.3514 25.6887 46.8912 25.774 47.4689 25.774C48.1412 25.774 48.7449 25.6651 49.2799 25.4473C49.815 25.2247 50.2387 24.9169 50.5512 24.524C50.8637 24.1262 51.02 23.6622 51.02 23.1319C51.02 22.649 50.8851 22.256 50.6152 21.9529C50.3453 21.6499 49.9902 21.4037 49.5498 21.2143C49.1095 21.0249 48.6336 20.8592 48.1223 20.7171L46.3325 20.2058C45.1961 19.8791 44.2965 19.4127 43.6336 18.8066C42.9708 18.2006 42.6393 17.4075 42.6393 16.4274C42.6393 15.613 42.8595 14.9027 43.2998 14.2967C43.7449 13.6859 44.3415 13.2124 45.0896 12.8762C45.8424 12.5353 46.6829 12.3649 47.6109 12.3649C48.5484 12.3649 49.3817 12.533 50.1109 12.8691C50.8401 13.2006 51.4177 13.6551 51.8439 14.2328C52.2747 14.8104 52.502 15.4662 52.5257 16.2001H50.8211ZM59.825 27.3365C58.8402 27.3365 57.9761 27.1021 57.2327 26.6333C56.4941 26.1646 55.9164 25.5088 55.4998 24.666C55.0878 23.8232 54.8819 22.8384 54.8819 21.7115C54.8819 20.5751 55.0878 19.5831 55.4998 18.7356C55.9164 17.8881 56.4941 17.2299 57.2327 16.7612C57.9761 16.2924 58.8402 16.058 59.825 16.058C60.8099 16.058 61.6716 16.2924 62.4103 16.7612C63.1536 17.2299 63.7313 17.8881 64.1432 18.7356C64.5599 19.5831 64.7682 20.5751 64.7682 21.7115C64.7682 22.8384 64.5599 23.8232 64.1432 24.666C63.7313 25.5088 63.1536 26.1646 62.4103 26.6333C61.6716 27.1021 60.8099 27.3365 59.825 27.3365ZM59.825 25.8308C60.5731 25.8308 61.1887 25.639 61.6716 25.2555C62.1546 24.872 62.5121 24.3677 62.7441 23.7427C62.9761 23.1177 63.0921 22.4406 63.0921 21.7115C63.0921 20.9823 62.9761 20.3028 62.7441 19.6731C62.5121 19.0434 62.1546 18.5344 61.6716 18.1461C61.1887 17.7579 60.5731 17.5637 59.825 17.5637C59.0769 17.5637 58.4614 17.7579 57.9784 18.1461C57.4955 18.5344 57.138 19.0434 56.906 19.6731C56.674 20.3028 56.558 20.9823 56.558 21.7115C56.558 22.4406 56.674 23.1177 56.906 23.7427C57.138 24.3677 57.4955 24.872 57.9784 25.2555C58.4614 25.639 59.0769 25.8308 59.825 25.8308ZM74.2018 22.649V16.2001H75.878V27.1092H74.2018V25.2626H74.0882C73.8325 25.8166 73.4348 26.2877 72.895 26.6759C72.3552 27.0595 71.6734 27.2512 70.8495 27.2512C70.1677 27.2512 69.5617 27.1021 69.0314 26.8038C68.5011 26.5008 68.0844 26.0462 67.7814 25.4402C67.4783 24.8294 67.3268 24.0599 67.3268 23.1319V16.2001H69.003V23.0183C69.003 23.8137 69.2255 24.4482 69.6706 24.9217C70.1204 25.3952 70.6933 25.6319 71.3893 25.6319C71.806 25.6319 72.2298 25.5254 72.6606 25.3123C73.0962 25.0992 73.4608 24.7725 73.7544 24.3322C74.0527 23.8919 74.2018 23.3308 74.2018 22.649ZM78.9479 27.1092V16.2001H80.5672V17.8478H80.6809C80.8797 17.308 81.2396 16.8701 81.7604 16.5339C82.2812 16.1977 82.8684 16.0296 83.5218 16.0296C83.6449 16.0296 83.7988 16.032 83.9834 16.0367C84.1681 16.0415 84.3078 16.0486 84.4025 16.058V17.7626C84.3456 17.7484 84.2154 17.7271 84.0118 17.6987C83.813 17.6655 83.6023 17.649 83.3797 17.649C82.8494 17.649 82.3759 17.7602 81.9593 17.9828C81.5473 18.2006 81.2206 18.5036 80.9792 18.8919C80.7424 19.2754 80.624 19.7134 80.624 20.2058V27.1092H78.9479ZM90.4891 27.3365C89.4664 27.3365 88.5857 27.095 87.8471 26.612C87.1084 26.1291 86.5402 25.4638 86.1425 24.6163C85.7448 23.7687 85.5459 22.8005 85.5459 21.7115C85.5459 20.6035 85.7495 19.6258 86.1567 18.7782C86.5686 17.9259 87.1416 17.2607 87.8755 16.7825C88.6141 16.2995 89.4758 16.058 90.4607 16.058C91.2277 16.058 91.919 16.2001 92.5346 16.4842C93.1501 16.7683 93.6543 17.166 94.0473 17.6774C94.4403 18.1887 94.6842 18.7853 94.7789 19.4671H93.1027C92.9749 18.97 92.6908 18.5296 92.2505 18.1461C91.8149 17.7579 91.2277 17.5637 90.4891 17.5637C89.8357 17.5637 89.2628 17.7342 88.7704 18.0751C88.2827 18.4113 87.9015 18.8871 87.6269 19.5026C87.357 20.1134 87.2221 20.8308 87.2221 21.6546C87.2221 22.4974 87.3546 23.2313 87.6198 23.8563C87.8897 24.4813 88.2685 24.9667 88.7561 25.3123C89.2486 25.658 89.8262 25.8308 90.4891 25.8308C90.9247 25.8308 91.3201 25.755 91.6752 25.6035C92.0303 25.452 92.331 25.2342 92.5772 24.9501C92.8234 24.666 92.9986 24.3251 93.1027 23.9274H94.7789C94.6842 24.5713 94.4498 25.1513 94.0758 25.6674C93.7064 26.1788 93.2164 26.586 92.6056 26.889C91.9995 27.1873 91.294 27.3365 90.4891 27.3365ZM101.803 27.3365C100.752 27.3365 99.8452 27.1044 99.0829 26.6404C98.3253 26.1717 97.7405 25.5183 97.3286 24.6802C96.9214 23.8374 96.7178 22.8573 96.7178 21.7399C96.7178 20.6224 96.9214 19.6376 97.3286 18.7853C97.7405 17.9283 98.3134 17.2607 99.0473 16.7825C99.786 16.2995 100.648 16.058 101.633 16.058C102.201 16.058 102.762 16.1527 103.316 16.3421C103.87 16.5315 104.374 16.8393 104.829 17.2654C105.283 17.6868 105.645 18.2455 105.915 18.9416C106.185 19.6376 106.32 20.4946 106.32 21.5126V22.2228H97.911V20.774H104.616C104.616 20.1584 104.492 19.6092 104.246 19.1262C104.005 18.6433 103.659 18.2621 103.209 17.9828C102.764 17.7034 102.239 17.5637 101.633 17.5637C100.965 17.5637 100.387 17.7294 99.8996 18.0609C99.4167 18.3876 99.045 18.8137 98.7846 19.3393C98.5241 19.8649 98.3939 20.4283 98.3939 21.0296V21.9955C98.3939 22.8194 98.536 23.5178 98.8201 24.0907C99.1089 24.6589 99.509 25.0921 100.02 25.3904C100.532 25.684 101.126 25.8308 101.803 25.8308C102.243 25.8308 102.641 25.7692 102.996 25.6461C103.356 25.5183 103.666 25.3289 103.927 25.0779C104.187 24.8223 104.388 24.505 104.53 24.1262L106.15 24.5808C105.979 25.13 105.693 25.613 105.29 26.0296C104.888 26.4416 104.391 26.7635 103.799 26.9955C103.207 27.2228 102.542 27.3365 101.803 27.3365Z" fill="white"/>
<g clip-path="url(#clip0_3_60)">
<path fill-rule="evenodd" clip-rule="evenodd" d="M8.01165 2.83954C7.86239 2.8039 7.70503 2.83165 7.57695 2.91618L1.01273 7.24875C0.828051 7.37063 0.733397 7.59055 0.771822 7.80847C0.810245 8.02638 0.974407 8.20066 1.18963 8.25204L2.24018 8.50282L3.31813 14.6162C2.88037 14.9106 2.63298 15.4446 2.7305 15.9977C2.86247 16.7461 3.57619 17.2459 4.32465 17.1139C5.0731 16.9819 5.57285 16.2682 5.44088 15.5198C5.34327 14.9662 4.92744 14.5486 4.4147 14.4221L3.42065 8.78461L8.83981 10.0782C8.98907 10.1138 9.14644 10.0861 9.27451 10.0016L15.8388 5.66901C16.0234 5.54712 16.1181 5.32719 16.0796 5.10929C16.0412 4.89137 15.877 4.7171 15.6619 4.66571L8.01165 2.83954ZM5.0351 13.0884L4.5706 10.4862L8.51706 11.4282C9.0395 11.5529 9.59025 11.4558 10.0385 11.16L13.4254 8.92454L13.8848 11.5267C13.9058 11.6461 13.8872 11.7692 13.8317 11.8771L13.3381 11.6232C13.8317 11.8771 13.8319 11.8769 13.8317 11.8771L13.8311 11.8783L13.8304 11.8796L13.8288 11.8827L13.8245 11.8908L13.8114 11.9145C13.8008 11.9335 13.7862 11.9588 13.7673 11.9896C13.7296 12.0513 13.6748 12.1352 13.6012 12.2351C13.454 12.4348 13.2305 12.6997 12.9155 12.9787C12.2825 13.5395 11.2886 14.1494 9.82693 14.4072C8.36524 14.6649 7.224 14.4314 6.43856 14.1204C6.0478 13.9657 5.74787 13.793 5.54174 13.6554C5.43862 13.5866 5.35868 13.5264 5.30231 13.4813C5.2741 13.4587 5.25175 13.4399 5.23528 13.4257L5.21499 13.4078L5.20816 13.4016L5.20557 13.3992L5.20449 13.3982C5.20426 13.398 5.20353 13.3974 5.58156 12.9909L5.20353 13.3974C5.11537 13.3154 5.05625 13.2069 5.0351 13.0884Z" fill="#0DCAF0"/>
</g>
<defs>
<clipPath id="clip0_3_60">
<rect width="15.544" height="15.544" fill="white" transform="translate(0 3.43107) rotate(-10)"/>
</clipPath>
</defs>
</svg>
