<svg width="58" height="52" viewBox="0 0 58 52" fill="none" xmlns="http://www.w3.org/2000/svg">
<path fill-rule="evenodd" clip-rule="evenodd" d="M29.8235 1.01743C29.2981 0.789783 28.7019 0.789783 28.1765 1.01743L1.24791 12.6849C0.490315 13.0131 0 13.7599 0 14.5856C0 15.4112 0.490315 16.158 1.24791 16.4863L4.94583 18.0885V41.2514C3.14641 42.0498 1.89133 43.8519 1.89133 45.9474C1.89133 48.7831 4.19021 51.082 7.02604 51.082C9.86186 51.082 12.1607 48.7831 12.1607 45.9474C12.1607 43.8498 10.9033 42.046 9.10107 41.2489V19.8889L28.1765 28.1537C28.7019 28.3814 29.2981 28.3814 29.8235 28.1537L56.7522 16.4863C57.5095 16.158 58 15.4112 58 14.5856C58 13.7599 57.5095 13.0131 56.7522 12.6849L29.8235 1.01743ZM12.245 36.7499L12.2242 26.8867L26.1157 32.9055C27.9547 33.7022 30.0415 33.7022 31.8804 32.9055L45.7744 26.8856L45.7765 36.7451C45.7765 37.1978 45.6282 37.6381 45.3543 37.9986L45.3544 37.9986C45.3547 37.9981 45.3504 37.9948 45.1477 37.8411C44.9412 37.6844 44.5287 37.3713 43.7051 36.7456L45.3543 37.9986L45.3514 38.0024L45.3481 38.0068L45.3403 38.0172L45.3191 38.0442L45.2557 38.1229C45.2044 38.1858 45.1344 38.2692 45.0449 38.3703C44.8663 38.5723 44.6107 38.8451 44.2755 39.1646C43.6052 39.8031 42.6122 40.6317 41.274 41.4528C38.5844 43.1033 34.5369 44.7008 28.9989 44.7008C23.4607 44.7008 19.4183 43.1033 16.7336 41.4515C15.3979 40.63 14.4077 39.801 13.7393 39.1619C13.405 38.8421 13.1503 38.569 12.9724 38.3668C12.8833 38.2656 12.8134 38.182 12.7621 38.119L12.6991 38.0402L12.678 38.013L12.67 38.0026L12.6667 37.9982C12.666 37.9973 12.6638 37.9944 14.3163 36.7457L12.6638 37.9944C12.3929 37.636 12.246 37.1992 12.245 36.7499ZM35.2518 11.8182C35.1879 11.2784 34.9286 10.8594 34.4741 10.5611C34.0196 10.2628 33.462 10.1136 32.8015 10.1136C32.3186 10.1136 31.896 10.1918 31.5338 10.348C31.1751 10.5043 30.8946 10.7191 30.6921 10.9925C30.4933 11.266 30.3938 11.5767 30.3938 11.9247C30.3938 12.2159 30.4631 12.4663 30.6016 12.6758C30.7436 12.8817 30.9247 13.054 31.1449 13.1925C31.3651 13.3274 31.5959 13.4393 31.8374 13.528C32.0789 13.6133 32.3008 13.6825 32.5032 13.7358L33.6112 14.0341C33.8953 14.1087 34.2113 14.2116 34.5593 14.343C34.9109 14.4744 35.2465 14.6538 35.5661 14.881C35.8892 15.1048 36.1556 15.3924 36.3651 15.744C36.5746 16.0955 36.6794 16.527 36.6794 17.0383C36.6794 17.6278 36.5249 18.1605 36.2159 18.6364C35.9105 19.1122 35.4631 19.4904 34.8736 19.7709C34.2877 20.0515 33.5757 20.1918 32.7376 20.1918C31.9563 20.1918 31.2799 20.0657 30.7081 19.8136C30.1399 19.5614 29.6925 19.2099 29.3658 18.7589C29.0426 18.3079 28.8598 17.7841 28.8171 17.1875H30.1808C30.2163 17.5994 30.3548 17.9403 30.5963 18.2102C30.8413 18.4766 31.1502 18.6754 31.5231 18.8068C31.8995 18.9347 32.3044 18.9986 32.7376 18.9986C33.2419 18.9986 33.6946 18.9169 34.0959 18.7535C34.4972 18.5866 34.815 18.3558 35.0494 18.0611C35.2838 17.7628 35.4009 17.4148 35.4009 17.017C35.4009 16.6548 35.2997 16.3601 35.0973 16.1328C34.8949 15.9055 34.6286 15.7209 34.2983 15.5788C33.9681 15.4368 33.6112 15.3125 33.2276 15.206L31.8853 14.8224C31.033 14.5774 30.3583 14.2276 29.8612 13.7731C29.364 13.3185 29.1154 12.7237 29.1154 11.9886C29.1154 11.3778 29.2806 10.8452 29.6108 10.3906C29.9446 9.93252 30.3921 9.57741 30.9531 9.32528C31.5178 9.0696 32.1481 8.94176 32.8441 8.94176C33.5473 8.94176 34.1723 9.06782 34.7191 9.31995C35.266 9.56853 35.6992 9.90944 36.0188 10.3427C36.342 10.7759 36.5125 11.2678 36.5302 11.8182H35.2518ZM20.321 9.09091V20H26.9901V18.8281H21.6421V15.1207H26.5639V13.9489H21.6421V10.2628H26.9049V9.09091H20.321Z" fill="#0DCAF0"/>
</svg>
